<svg xmlns="http://www.w3.org/2000/svg" xmlns:xlink="http://www.w3.org/1999/xlink" width="2000" zoomAndPan="magnify" viewBox="0 0 1500 1499.999933" height="2000" preserveAspectRatio="xMidYMid meet" version="1.0"><rect x="-150" width="1800" fill="#ffffff" y="-149.999993" height="1799.99992" fill-opacity="1"/><rect x="-150" width="1800" fill="#167df6" y="-149.999993" height="1799.99992" fill-opacity="1"/><path fill="#ffffff" d="M 749.996094 1123.65625 L 459.375 965.886719 L 459.375 716.78125 L 293.304688 625.445312 L 749.996094 376.339844 L 1206.691406 625.445312 L 1206.691406 957.585938 L 1123.65625 957.585938 L 1123.65625 671.113281 L 1040.621094 716.78125 L 1040.621094 965.886719 Z M 749.996094 779.058594 L 1034.390625 625.445312 L 749.996094 471.828125 L 465.601562 625.445312 Z M 749.996094 1029.203125 L 957.585938 917.105469 L 957.585938 760.375 L 749.996094 874.550781 L 542.410156 760.375 L 542.410156 917.105469 Z M 749.996094 779.058594 Z M 749.996094 872.472656 Z M 749.996094 872.472656 Z M 749.996094 872.472656 " fill-opacity="1" fill-rule="nonzero"/></svg>